<svg xmlns="http://www.w3.org/2000/svg" width="1920" height="1080"><path d="M112,-443L364,-426L1017,-447Z" fill="#dedede" stroke="#dedede" stroke-width="1.51"/><path d="M390,1563L135,1581L1520,1571Z" fill="#595959" stroke="#595959" stroke-width="1.51"/><path d="M1239,1517L757,1508L1520,1571Z" fill="#464646" stroke="#464646" stroke-width="1.51"/><path d="M757,1508L390,1563L1520,1571Z" fill="#515151" stroke="#515151" stroke-width="1.51"/><path d="M1942,1421L1822,1450L2227,1406Z" fill="#252525" stroke="#252525" stroke-width="1.51"/><path d="M1822,1450L1520,1571L2227,1406Z" fill="#2a2a2a" stroke="#2a2a2a" stroke-width="1.51"/><path d="M1833,-409L2126,-357L2355,-319Z" fill="#838383" stroke="#838383" stroke-width="1.51"/><path d="M1992,1150L2347,1311L2360,963Z" fill="#2f2f2f" stroke="#2f2f2f" stroke-width="1.51"/><path d="M2122,913L1992,1150L2360,963Z" fill="#3b3b3b" stroke="#3b3b3b" stroke-width="1.51"/><path d="M2135,204L2329,337L2397,179Z" fill="#636363" stroke="#636363" stroke-width="1.51"/><path d="M2222,-208L2135,204L2397,179Z" fill="#6d6d6d" stroke="#6d6d6d" stroke-width="1.51"/><path d="M2355,-319L2222,-208L2397,179Z" fill="#717171" stroke="#717171" stroke-width="1.51"/><path d="M2329,337L2006,615L2399,601Z" fill="#535353" stroke="#535353" stroke-width="1.51"/><path d="M2122,913L2360,963L2399,601Z" fill="#3f3f3f" stroke="#3f3f3f" stroke-width="1.51"/><path d="M2006,615L2122,913L2399,601Z" fill="#4c4c4c" stroke="#4c4c4c" stroke-width="1.51"/><path d="M2360,963L2347,1311L2399,601Z" fill="#353535" stroke="#353535" stroke-width="1.51"/><path d="M2397,179L2329,337L2399,601Z" fill="#575757" stroke="#575757" stroke-width="1.51"/><path d="M2110,-217L2135,204L2222,-208Z" fill="#777777" stroke="#777777" stroke-width="1.51"/><path d="M2057,304L2006,615L2329,337Z" fill="#5f5f5f" stroke="#5f5f5f" stroke-width="1.51"/><path d="M1992,1150L2227,1406L2347,1311Z" fill="#252525" stroke="#252525" stroke-width="1.51"/><path d="M2126,-357L2222,-208L2355,-319Z" fill="#7b7b7b" stroke="#7b7b7b" stroke-width="1.51"/><path d="M2135,204L2057,304L2329,337Z" fill="#666666" stroke="#666666" stroke-width="1.51"/><path d="M2110,-217L1789,103L2135,204Z" fill="#7b7b7b" stroke="#7b7b7b" stroke-width="1.51"/><path d="M2126,-357L2110,-217L2222,-208Z" fill="#7f7f7f" stroke="#7f7f7f" stroke-width="1.51"/><path d="M1992,1150L1942,1421L2227,1406Z" fill="#282828" stroke="#282828" stroke-width="1.51"/><path d="M1810,-203L1789,103L2110,-217Z" fill="#898989" stroke="#898989" stroke-width="1.51"/><path d="M2006,615L1858,882L2122,913Z" fill="#505050" stroke="#505050" stroke-width="1.51"/><path d="M1858,882L1992,1150L2122,913Z" fill="#464646" stroke="#464646" stroke-width="1.51"/><path d="M1789,103L2057,304L2135,204Z" fill="#757575" stroke="#757575" stroke-width="1.51"/><path d="M1833,-409L1810,-203L2110,-217Z" fill="#8e8e8e" stroke="#8e8e8e" stroke-width="1.51"/><path d="M1833,-409L2110,-217L2126,-357Z" fill="#888888" stroke="#888888" stroke-width="1.51"/><path d="M1750,428L2006,615L2057,304Z" fill="#696969" stroke="#696969" stroke-width="1.51"/><path d="M1789,103L1750,428L2057,304Z" fill="#7a7a7a" stroke="#7a7a7a" stroke-width="1.51"/><path d="M1759,1206L1942,1421L1992,1150Z" fill="#373737" stroke="#373737" stroke-width="1.51"/><path d="M1858,882L1759,1206L1992,1150Z" fill="#474747" stroke="#474747" stroke-width="1.51"/><path d="M1687,700L1858,882L2006,615Z" fill="#5d5d5d" stroke="#5d5d5d" stroke-width="1.51"/><path d="M1750,428L1687,700L2006,615Z" fill="#696969" stroke="#696969" stroke-width="1.51"/><path d="M1759,1206L1822,1450L1942,1421Z" fill="#323232" stroke="#323232" stroke-width="1.51"/><path d="M1595,418L1750,428L1789,103Z" fill="#828282" stroke="#828282" stroke-width="1.51"/><path d="M1573,-123L1789,103L1810,-203Z" fill="#949494" stroke="#949494" stroke-width="1.51"/><path d="M1585,-432L1810,-203L1833,-409Z" fill="#9c9c9c" stroke="#9c9c9c" stroke-width="1.51"/><path d="M1687,700L1481,956L1858,882Z" fill="#616161" stroke="#616161" stroke-width="1.51"/><path d="M1559,1140L1759,1206L1858,882Z" fill="#505050" stroke="#505050" stroke-width="1.51"/><path d="M1481,956L1559,1140L1858,882Z" fill="#5a5a5a" stroke="#5a5a5a" stroke-width="1.51"/><path d="M364,-426L713,-392L1017,-447Z" fill="#d4d4d4" stroke="#d4d4d4" stroke-width="1.51"/><path d="M1759,1206L1520,1571L1822,1450Z" fill="#373737" stroke="#373737" stroke-width="1.51"/><path d="M1585,-432L1573,-123L1810,-203Z" fill="#9f9f9f" stroke="#9f9f9f" stroke-width="1.51"/><path d="M1595,418L1687,700L1750,428Z" fill="#767676" stroke="#767676" stroke-width="1.51"/><path d="M1559,1140L1520,1571L1759,1206Z" fill="#424242" stroke="#424242" stroke-width="1.51"/><path d="M1425,53L1595,418L1789,103Z" fill="#8e8e8e" stroke="#8e8e8e" stroke-width="1.51"/><path d="M1573,-123L1425,53L1789,103Z" fill="#979797" stroke="#979797" stroke-width="1.51"/><path d="M1546,698L1481,956L1687,700Z" fill="#696969" stroke="#696969" stroke-width="1.51"/><path d="M1595,418L1546,698L1687,700Z" fill="#737373" stroke="#737373" stroke-width="1.51"/><path d="M1257,1244L1520,1571L1559,1140Z" fill="#484848" stroke="#484848" stroke-width="1.51"/><path d="M1017,-447L1217,-340L1585,-432Z" fill="#b6b6b6" stroke="#b6b6b6" stroke-width="1.51"/><path d="M1257,1244L1239,1517L1520,1571Z" fill="#444444" stroke="#444444" stroke-width="1.51"/><path d="M1322,732L1481,956L1546,698Z" fill="#6e6e6e" stroke="#6e6e6e" stroke-width="1.51"/><path d="M1217,-340L1208,-191L1573,-123Z" fill="#aeaeae" stroke="#aeaeae" stroke-width="1.51"/><path d="M1217,-340L1573,-123L1585,-432Z" fill="#aaaaaa" stroke="#aaaaaa" stroke-width="1.51"/><path d="M1425,53L1198,182L1595,418Z" fill="#969696" stroke="#969696" stroke-width="1.51"/><path d="M1198,182L1166,362L1595,418Z" fill="#949494" stroke="#949494" stroke-width="1.51"/><path d="M1322,732L1546,698L1595,418Z" fill="#787878" stroke="#787878" stroke-width="1.51"/><path d="M1166,362L1322,732L1595,418Z" fill="#858585" stroke="#858585" stroke-width="1.51"/><path d="M1208,-191L1425,53L1573,-123Z" fill="#a5a5a5" stroke="#a5a5a5" stroke-width="1.51"/><path d="M1481,956L1257,1244L1559,1140Z" fill="#5b5b5b" stroke="#5b5b5b" stroke-width="1.51"/><path d="M1322,732L1189,865L1481,956Z" fill="#707070" stroke="#707070" stroke-width="1.51"/><path d="M1189,865L1257,1244L1481,956Z" fill="#676767" stroke="#676767" stroke-width="1.51"/><path d="M1038,1444L757,1508L1239,1517Z" fill="#4f4f4f" stroke="#4f4f4f" stroke-width="1.51"/><path d="M1166,362L1060,612L1322,732Z" fill="#898989" stroke="#898989" stroke-width="1.51"/><path d="M1208,-191L1198,182L1425,53Z" fill="#a6a6a6" stroke="#a6a6a6" stroke-width="1.51"/><path d="M1189,865L920,969L1257,1244Z" fill="#6f6f6f" stroke="#6f6f6f" stroke-width="1.51"/><path d="M920,969L921,1205L1257,1244Z" fill="#6a6a6a" stroke="#6a6a6a" stroke-width="1.51"/><path d="M1038,1444L1239,1517L1257,1244Z" fill="#4d4d4d" stroke="#4d4d4d" stroke-width="1.51"/><path d="M1060,612L1189,865L1322,732Z" fill="#7e7e7e" stroke="#7e7e7e" stroke-width="1.51"/><path d="M874,93L1198,182L1208,-191Z" fill="#afafaf" stroke="#afafaf" stroke-width="1.51"/><path d="M964,-227L874,93L1208,-191Z" fill="#b9b9b9" stroke="#b9b9b9" stroke-width="1.51"/><path d="M921,1205L1038,1444L1257,1244Z" fill="#5a5a5a" stroke="#5a5a5a" stroke-width="1.51"/><path d="M964,-227L1208,-191L1217,-340Z" fill="#b9b9b9" stroke="#b9b9b9" stroke-width="1.51"/><path d="M1017,-447L964,-227L1217,-340Z" fill="#bfbfbf" stroke="#bfbfbf" stroke-width="1.51"/><path d="M870,313L1166,362L1198,182Z" fill="#a3a3a3" stroke="#a3a3a3" stroke-width="1.51"/><path d="M1060,612L920,969L1189,865Z" fill="#7f7f7f" stroke="#7f7f7f" stroke-width="1.51"/><path d="M874,93L870,313L1198,182Z" fill="#acacac" stroke="#acacac" stroke-width="1.51"/><path d="M870,313L1060,612L1166,362Z" fill="#9a9a9a" stroke="#9a9a9a" stroke-width="1.51"/><path d="M870,313L789,443L1060,612Z" fill="#9f9f9f" stroke="#9f9f9f" stroke-width="1.51"/><path d="M758,740L920,969L1060,612Z" fill="#898989" stroke="#898989" stroke-width="1.51"/><path d="M789,443L758,740L1060,612Z" fill="#969696" stroke="#969696" stroke-width="1.51"/><path d="M713,-392L964,-227L1017,-447Z" fill="#c8c8c8" stroke="#c8c8c8" stroke-width="1.51"/><path d="M921,1205L757,1508L1038,1444Z" fill="#5b5b5b" stroke="#5b5b5b" stroke-width="1.51"/><path d="M673,-138L874,93L964,-227Z" fill="#c2c2c2" stroke="#c2c2c2" stroke-width="1.51"/><path d="M673,-138L723,69L874,93Z" fill="#c1c1c1" stroke="#c1c1c1" stroke-width="1.51"/><path d="M758,740L716,852L920,969Z" fill="#8a8a8a" stroke="#8a8a8a" stroke-width="1.51"/><path d="M920,969L787,1189L921,1205Z" fill="#747474" stroke="#747474" stroke-width="1.51"/><path d="M787,1189L757,1508L921,1205Z" fill="#656565" stroke="#656565" stroke-width="1.51"/><path d="M713,-392L673,-138L964,-227Z" fill="#cacaca" stroke="#cacaca" stroke-width="1.51"/><path d="M723,69L870,313L874,93Z" fill="#b6b6b6" stroke="#b6b6b6" stroke-width="1.51"/><path d="M716,852L787,1189L920,969Z" fill="#7f7f7f" stroke="#7f7f7f" stroke-width="1.51"/><path d="M723,69L789,443L870,313Z" fill="#b1b1b1" stroke="#b1b1b1" stroke-width="1.51"/><path d="M376,848L386,1218L716,852Z" fill="#909090" stroke="#909090" stroke-width="1.51"/><path d="M519,49L427,368L723,69Z" fill="#c3c3c3" stroke="#c3c3c3" stroke-width="1.51"/><path d="M386,1218L390,1563L757,1508Z" fill="#696969" stroke="#696969" stroke-width="1.51"/><path d="M427,368L334,717L758,740Z" fill="#a8a8a8" stroke="#a8a8a8" stroke-width="1.51"/><path d="M386,1218L757,1508L787,1189Z" fill="#6d6d6d" stroke="#6d6d6d" stroke-width="1.51"/><path d="M716,852L386,1218L787,1189Z" fill="#838383" stroke="#838383" stroke-width="1.51"/><path d="M427,368L758,740L789,443Z" fill="#a7a7a7" stroke="#a7a7a7" stroke-width="1.51"/><path d="M723,69L427,368L789,443Z" fill="#b8b8b8" stroke="#b8b8b8" stroke-width="1.51"/><path d="M376,848L716,852L758,740Z" fill="#969696" stroke="#969696" stroke-width="1.51"/><path d="M334,717L376,848L758,740Z" fill="#9d9d9d" stroke="#9d9d9d" stroke-width="1.51"/><path d="M463,-113L673,-138L713,-392Z" fill="#d2d2d2" stroke="#d2d2d2" stroke-width="1.51"/><path d="M364,-426L463,-113L713,-392Z" fill="#dadada" stroke="#dadada" stroke-width="1.51"/><path d="M673,-138L519,49L723,69Z" fill="#c9c9c9" stroke="#c9c9c9" stroke-width="1.51"/><path d="M463,-113L519,49L673,-138Z" fill="#cfcfcf" stroke="#cfcfcf" stroke-width="1.51"/><path d="M211,449L334,717L427,368Z" fill="#b5b5b5" stroke="#b5b5b5" stroke-width="1.51"/><path d="M364,-426L237,-164L463,-113Z" fill="#dedede" stroke="#dedede" stroke-width="1.51"/><path d="M463,-113L109,49L519,49Z" fill="#d3d3d3" stroke="#d3d3d3" stroke-width="1.51"/><path d="M109,49L427,368L519,49Z" fill="#cccccc" stroke="#cccccc" stroke-width="1.51"/><path d="M376,848L169,846L386,1218Z" fill="#969696" stroke="#969696" stroke-width="1.51"/><path d="M169,846L161,1241L386,1218Z" fill="#8f8f8f" stroke="#8f8f8f" stroke-width="1.51"/><path d="M386,1218L161,1241L390,1563Z" fill="#767676" stroke="#767676" stroke-width="1.51"/><path d="M109,49L211,449L427,368Z" fill="#c8c8c8" stroke="#c8c8c8" stroke-width="1.51"/><path d="M237,-164L109,49L463,-113Z" fill="#dadada" stroke="#dadada" stroke-width="1.51"/><path d="M161,1241L135,1581L390,1563Z" fill="#717171" stroke="#717171" stroke-width="1.51"/><path d="M112,-443L237,-164L364,-426Z" fill="#e5e5e5" stroke="#e5e5e5" stroke-width="1.51"/><path d="M211,449L199,749L334,717Z" fill="#afafaf" stroke="#afafaf" stroke-width="1.51"/><path d="M334,717L199,749L376,848Z" fill="#a4a4a4" stroke="#a4a4a4" stroke-width="1.51"/><path d="M199,749L169,846L376,848Z" fill="#a3a3a3" stroke="#a3a3a3" stroke-width="1.51"/><path d="M-53,999L161,1241L169,846Z" fill="#9a9a9a" stroke="#9a9a9a" stroke-width="1.51"/><path d="M-397,-399L-167,-341L112,-443Z" fill="#f3f3f3" stroke="#f3f3f3" stroke-width="1.51"/><path d="M-63,428L-188,630L199,749Z" fill="#bababa" stroke="#bababa" stroke-width="1.51"/><path d="M-63,428L199,749L211,449Z" fill="#bababa" stroke="#bababa" stroke-width="1.51"/><path d="M109,49L-63,428L211,449Z" fill="#cccccc" stroke="#cccccc" stroke-width="1.51"/><path d="M-205,-52L109,49L237,-164Z" fill="#e1e1e1" stroke="#e1e1e1" stroke-width="1.51"/><path d="M-167,-341L-205,-52L237,-164Z" fill="#e9e9e9" stroke="#e9e9e9" stroke-width="1.51"/><path d="M112,-443L-167,-341L237,-164Z" fill="#ebebeb" stroke="#ebebeb" stroke-width="1.51"/><path d="M-163,119L-63,428L109,49Z" fill="#d6d6d6" stroke="#d6d6d6" stroke-width="1.51"/><path d="M-197,1521L135,1581L161,1241Z" fill="#777777" stroke="#777777" stroke-width="1.51"/><path d="M-188,630L169,846L199,749Z" fill="#aeaeae" stroke="#aeaeae" stroke-width="1.51"/><path d="M-53,999L-172,1129L161,1241Z" fill="#959595" stroke="#959595" stroke-width="1.51"/><path d="M-172,1129L-197,1521L161,1241Z" fill="#868686" stroke="#868686" stroke-width="1.51"/><path d="M-188,630L-53,999L169,846Z" fill="#ababab" stroke="#ababab" stroke-width="1.51"/><path d="M-205,-52L-163,119L109,49Z" fill="#e0e0e0" stroke="#e0e0e0" stroke-width="1.51"/><path d="M-313,1445L-197,1521L-172,1129Z" fill="#838383" stroke="#838383" stroke-width="1.51"/><path d="M-163,119L-430,437L-63,428Z" fill="#d3d3d3" stroke="#d3d3d3" stroke-width="1.51"/><path d="M-422,952L-172,1129L-53,999Z" fill="#a2a2a2" stroke="#a2a2a2" stroke-width="1.51"/><path d="M-188,630L-422,952L-53,999Z" fill="#aeaeae" stroke="#aeaeae" stroke-width="1.51"/><path d="M-430,437L-188,630L-63,428Z" fill="#c7c7c7" stroke="#c7c7c7" stroke-width="1.51"/><path d="M-478,652L-422,952L-188,630Z" fill="#b7b8b8" stroke="#b7b8b8" stroke-width="1.51"/><path d="M-424,1174L-313,1445L-172,1129Z" fill="#8f8f8f" stroke="#8f8f8f" stroke-width="1.51"/><path d="M-422,952L-424,1174L-172,1129Z" fill="#a0a0a0" stroke="#a0a0a0" stroke-width="1.51"/><path d="M-464,-143L-205,-52L-167,-341Z" fill="#eeeeee" stroke="#eeeeee" stroke-width="1.51"/><path d="M-397,-399L-464,-143L-167,-341Z" fill="#f4f4f4" stroke="#f4f4f4" stroke-width="1.51"/><path d="M-205,-52L-454,115L-163,119Z" fill="#e4e4e4" stroke="#e4e4e4" stroke-width="1.51"/><path d="M-454,115L-430,437L-163,119Z" fill="#dddddd" stroke="#dddddd" stroke-width="1.51"/><path d="M-430,437L-478,652L-188,630Z" fill="#c4c4c4" stroke="#c4c4c4" stroke-width="1.51"/><path d="M-464,-143L-454,115L-205,-52Z" fill="#eaeaea" stroke="#eaeaea" stroke-width="1.51"/><path d="M-478,652L-424,1174L-422,952Z" fill="#adadad" stroke="#adadad" stroke-width="1.51"/><path d="M-454,115L-478,652L-430,437Z" fill="#d2d2d2" stroke="#d2d2d2" stroke-width="1.51"/><path d="M-464,-143L-478,652L-454,115Z" fill="#e0e0e0" stroke="#e0e0e0" stroke-width="1.51"/></svg>